<?xml version="1.0" standalone="no"?>
<!DOCTYPE svg PUBLIC "-//W3C//DTD SVG 20010904//EN"
 "http://www.w3.org/TR/2001/REC-SVG-20010904/DTD/svg10.dtd">
<svg version="1.0" xmlns="http://www.w3.org/2000/svg"
 width="200.000000pt" height="200.000000pt" viewBox="0 0 200.000000 200.000000"
 preserveAspectRatio="xMidYMid meet">
<metadata>
Created by potrace 1.11, written by Peter Selinger 2001-2013
</metadata>
<g transform="translate(0.000000,200.000000) scale(0.100000,-0.100000)"
fill="#000000" stroke="none">
<path d="M893 1588 c-56 -40 -104 -78 -107 -85 -3 -7 42 -47 104 -93 l108 -81
94 68 c101 74 134 101 127 106 -82 62 -202 149 -212 152 -6 3 -58 -28 -114
-67z"/>
<path d="M470 1512 c-41 -20 -50 -54 -25 -102 15 -30 15 -34 -4 -76 -38 -79
-21 -190 37 -250 58 -60 149 -86 228 -64 79 22 160 119 166 199 1 20 11 37 25
46 51 34 16 114 -77 177 -112 75 -275 108 -350 70z m135 -226 c60 -25 75 -39
56 -51 -6 -3 -11 -23 -11 -44 0 -103 130 -126 170 -31 10 24 10 37 1 56 -9 20
-9 25 1 22 39 -13 3 -119 -53 -159 -101 -72 -252 4 -252 126 0 33 18 105 27
105 0 0 28 -11 61 -24z"/>
<path d="M1330 1513 c-76 -22 -153 -65 -202 -115 -39 -38 -48 -54 -48 -82 0
-26 6 -40 23 -51 16 -10 24 -26 25 -51 3 -46 20 -79 64 -125 51 -54 93 -73
163 -73 97 0 172 51 211 143 20 46 14 147 -12 190 -17 29 -17 32 -1 60 44 75
-1 123 -113 119 -36 -1 -85 -7 -110 -15z m140 -233 c28 -67 17 -122 -34 -177
-75 -82 -211 -60 -257 41 -20 45 -25 96 -9 96 6 0 8 -12 6 -26 -17 -91 92
-148 154 -82 23 25 27 90 6 110 -11 11 -3 17 48 40 33 14 64 27 67 27 4 1 12
-12 19 -29z"/>
<path d="M963 1295 c-99 -42 -75 -178 34 -190 38 -4 87 35 97 78 20 80 -55
144 -131 112z"/>
<path d="M827 1098 c-29 -16 -37 -42 -22 -71 12 -24 12 -25 -4 -15 -22 13 -91
-8 -199 -60 -137 -66 -173 -152 -74 -179 34 -10 184 -9 236 0 56 10 144 37
194 58 38 17 46 17 70 5 56 -29 210 -66 297 -72 182 -13 254 42 166 126 -69
66 -256 144 -292 122 -16 -10 -16 -9 -3 16 11 22 11 30 1 46 -21 32 -54 39
-77 16 -16 -16 -25 -18 -45 -10 -29 11 -108 13 -142 4 -15 -4 -23 -14 -23 -28
-1 -17 -3 -15 -14 10 -15 34 -43 47 -69 32z m67 -82 c-3 -8 -13 -17 -22 -21
-13 -5 -13 -2 3 15 21 24 26 25 19 6z"/>
<path d="M764 738 c-7 -10 6 -57 27 -98 39 -78 116 -123 211 -122 107 0 193
65 223 166 17 55 11 66 -36 66 -22 0 -28 -6 -33 -33 -9 -46 -31 -74 -76 -97
-93 -47 -219 4 -236 96 -6 32 -9 34 -41 32 -19 -1 -36 -6 -39 -10z"/>
<path d="M622 717 l-40 -8 9 -41 c32 -142 145 -267 284 -313 58 -19 177 -22
232 -5 148 45 258 161 298 312 14 52 18 50 -76 63 l-46 7 -6 -36 c-19 -120
-122 -211 -252 -223 -64 -6 -156 18 -204 54 -45 35 -89 106 -97 159 -7 48 -11
49 -102 31z"/>
</g>
</svg>
